# xmcd CD database file
#
# Track frame offsets:
#	150
#	14155
#	28699
#	43190
#	63463
#	78532
#	98671
#	114737
#	128609
#	152469
#	175992
#	195783
#
# Disc length: 2899 seconds
#
# Revision: 1
# Processed by: cddbd v1.5.2PL0 Copyright (c) Steve Scherf et al.
# Submitted via: CDex 1.51
#
DISCID=960b510c
DTITLE=Shaun Paul - New Beginnings
DYEAR=1998
DGENRE=New Age
TTITLE0=New Beginnings
TTITLE1=Determination
TTITLE2=Serendipity
TTITLE3=My Cello, My Peace
TTITLE4=The Celestial Dream
TTITLE5=Utopia Falls
TTITLE6=Seattle Sunrise
TTITLE7=Passages In Time
TTITLE8=Healing Relations
TTITLE9=Parade Of Consciousness
TTITLE10=Transcendence
TTITLE11=Tropicana
EXTD=YEAR: 1998
EXTT0=
EXTT1=
EXTT2=
EXTT3=
EXTT4=
EXTT5=
EXTT6=
EXTT7=
EXTT8=
EXTT9=
EXTT10=
EXTT11=
PLAYORDER=
